<svg width="737" height="208" viewBox="0 0 737 208" fill="none" xmlns="http://www.w3.org/2000/svg">
<path d="M451.384 128.758C451.108 106.692 450.904 84.6251 450.484 62.5622C450.414 58.8756 451.168 56.8883 454.998 56.9769C460.778 57.1105 466.61 56.5948 472.329 57.2425C477.138 57.7871 480.111 61.2612 480.628 66.5887C480.825 68.6155 481.106 70.6483 481.108 72.6786C481.138 103.479 481.062 134.279 481.212 165.078C481.231 168.895 479.902 170.781 476.701 172.036C467.869 175.497 458.978 175.485 450.06 172.721C444.991 171.151 441.91 167.116 439.737 162.287C430.83 142.49 421.97 122.67 413.087 102.862C412.877 102.393 412.592 101.961 411.861 100.648C411.861 125.094 411.861 148.604 411.861 172.364C404.88 174.199 397.699 174.79 390.501 173.31C385.043 172.188 382.151 168.03 382.002 161.332C381.833 153.704 381.931 146.07 381.929 138.438C381.925 114.725 382.01 91.0107 381.842 67.2988C381.816 63.5894 383.094 61.3825 386.024 59.856C396.109 54.603 406.323 54.7686 416.233 59.9481C418.899 61.3416 421.297 64.4153 422.643 67.3217C432.105 87.7431 441.259 108.323 450.809 129.187C451.199 129.268 451.292 129.013 451.384 128.758Z" 
fill="#4D89D1"/>
<path d="M728.889 136.832C726.161 147.293 723.679 157.479 720.795 167.536C720.251 169.431 718.393 171.543 716.648 172.31C708.265 175.998 699.535 176.494 690.71 174.158C686.493 173.041 683.651 170.355 682.43 165.822C678.822 152.433 675.159 139.059 671.5 125.685C671.301 124.956 670.948 124.274 670.68 123.604C666.636 138.267 662.748 152.818 658.502 167.253C657.877 169.379 655.889 171.745 653.961 172.642C645.12 176.754 636.031 176.358 627.032 172.971C623.129 171.503 620.4 168.658 619.351 164.36C615.159 147.183 610.85 130.035 606.95 112.785C605.091 104.563 603.986 96.1462 602.714 87.7883C602.526 86.5508 602.886 84.5642 603.702 83.9176C610.199 78.7708 617.453 77.0674 625.336 79.7033C631.221 81.6709 633.281 86.6231 634.04 92.561C636.116 108.806 638.245 125.044 640.379 141.281C640.537 142.478 640.905 143.645 641.408 145.841C644.067 134.821 646.521 124.795 648.9 114.75C650.563 107.729 652.232 100.705 653.68 93.6329C654.284 90.682 655.557 88.9603 658.305 87.7895C664.965 84.9512 671.703 84.7459 678.552 86.3802C683.491 87.5589 686.676 90.623 687.979 96.0776C691.867 112.355 695.996 128.569 700.67 144.955C701.353 140.112 702.134 135.281 702.701 130.423C704.41 115.777 706.108 101.128 707.64 86.4612C707.982 83.1903 709.08 80.8991 712.262 80.4762C717.219 79.8174 722.251 78.744 727.173 79.0869C733.722 79.5431 737.67 84.4315 736.905 91.4573C735.741 102.149 733.728 112.743 731.913 123.348C731.155 127.777 729.981 132.126 728.889 136.832Z" 
fill="#39A1E8"/>
<path d="M273.247 120.06C273.247 135.771 273.242 151.071 273.249 166.372C273.259 187.444 263.43 200.987 244.078 205.798C231.6 208.9 219.014 208.752 206.585 205.179C196.536 202.291 191.657 196.041 192.147 186.837C192.246 184.966 192.673 183.04 193.312 181.289C195.243 176.002 197.099 175.2 201.875 177.407C212.729 182.42 223.899 184.12 235.387 180.455C242.289 178.253 244.882 173.355 243.843 165.472C236.008 167.861 228.106 168.844 219.932 167.841C201.986 165.641 189.554 153.152 186.711 134.058C185.451 125.596 185.468 117.176 187.596 108.876C191.911 92.0429 202.954 82.8268 218.486 79.2705C232.181 76.1347 245.675 77.249 258.529 83.4833C261.767 85.054 264.827 87.2149 267.642 89.5471C271.499 92.7423 273.343 97.1464 273.268 102.437C273.186 108.173 273.248 113.912 273.247 120.06ZM224.437 105.379C216.181 110.783 215.869 119.298 216.772 128.087C218.185 141.841 229.602 148.309 241.263 141.988C242.446 141.346 243.728 139.45 243.756 138.108C243.964 128.026 243.947 117.935 243.765 107.852C243.743 106.674 242.501 104.851 241.456 104.474C235.945 102.489 230.381 102.456 224.437 105.379Z" 
fill="#6172BB"/>
<path d="M529.448 80.0598C542.583 76.4587 555.251 76.4396 567.582 82.232C583.714 89.8104 591.698 103.603 593.186 121.653C594.376 136.081 591.925 149.735 582.447 161.098C577.531 166.991 571.545 171.122 564.508 173.459C552.886 177.319 541.101 177.608 529.466 173.86C514.823 169.142 504.898 158.988 501.015 143.13C496.255 123.69 498.239 105.379 512.41 90.7647C516.941 86.0913 523.516 83.6423 529.448 80.0598ZM530.571 121.521C530.206 129.069 529.925 136.615 533.651 143.506C538.931 153.272 552.926 153.775 558.097 144.008C563.698 133.428 563.348 122.199 558.871 111.238C556.537 105.524 551.735 103.01 546.03 103.039C540.311 103.068 535.718 105.758 533.289 111.42C532.028 114.358 531.483 117.642 530.571 121.521Z" 
fill="#4295DC"/>
<path d="M170.205 147.006C170.205 148.235 170.205 149.054 170.205 149.874C170.206 162.026 167.117 167.335 156.185 171.413C139.032 177.812 121.504 178.361 104.255 172.122C84.9895 165.154 79.2232 138.87 93.5895 124.834C98.9298 119.617 105.747 117.676 112.787 116.717C121.02 115.596 129.278 114.677 137.524 113.658C138.276 113.565 139.018 113.379 139.707 113.248C140.267 107.94 138.864 104.792 133.796 103.775C127.764 102.565 121.445 102.058 115.325 102.472C109.975 102.833 104.666 104.673 99.465 106.306C97.2877 106.989 96.0889 106.492 94.7707 104.894C89.0131 97.9139 90.5659 86.8779 98.4337 82.9789C102.919 80.7562 107.978 79.3937 112.914 78.6817C125.347 76.8884 137.755 76.9149 149.81 81.5137C162.652 86.413 170.153 97.4313 170.2 111.755C170.238 123.369 170.206 134.984 170.205 147.006ZM118.53 150.283C125.255 153.891 132.097 152.766 138.915 150.718C139.568 150.522 140.396 149.415 140.417 148.707C140.552 144.149 140.486 139.584 140.486 134.504C133.795 135.411 127.656 135.675 121.808 137.186C115.091 138.922 113.89 143.964 118.53 150.283Z" 
fill="#6C66B0"/>
<path d="M76.3683 162.032C75.3126 170.423 72.3903 173.559 64.7114 173.651C48.7959 173.842 32.8738 173.912 16.9604 173.64C5.64672 173.446 0.0138379 166.952 0.00817321 154.954C-0.00649732 123.815 0.00307747 92.6764 0.00298272 61.5374C0.00298272 60.2051 0.00298272 58.8728 0.00298272 56.484C7.26096 56.3493 14.2276 55.5926 21.069 56.262C28.551 56.9941 31.6516 61.752 31.6984 70.6902C31.7799 86.2592 31.7213 101.829 31.7214 117.399C31.7215 126.003 31.7136 134.607 31.7319 143.211C31.7341 144.266 31.8762 145.32 31.9841 146.794C38.4718 146.794 44.7787 146.794 51.0855 146.794C57.2973 146.794 63.5164 146.981 69.7176 146.711C72.6214 146.585 74.1732 147.685 74.6795 150.491C75.3502 154.208 75.8475 157.96 76.3683 162.032Z" 
fill="#785AA4"/>
<path d="M292.604 91.9016C292.604 88.5272 292.604 85.5584 292.604 81.4834C299.895 81.4118 306.796 80.8723 313.618 81.4108C320.325 81.9403 323.762 87.2975 323.831 95.9867C323.917 106.765 323.85 117.545 323.85 128.324C323.85 141.832 323.85 155.34 323.85 168.848C323.85 170.322 323.85 171.796 323.85 174.486C316.341 174.518 309.183 175.027 302.11 174.433C295.994 173.918 292.67 168.878 292.636 161.484C292.559 144.702 292.607 127.919 292.604 111.137C292.603 104.86 292.604 98.5837 292.604 91.9016Z" 
fill="#587FC7"/>
<path d="M224.54 104.956C230.24 102.158 235.829 102.191 241.365 104.177C242.414 104.554 243.662 106.377 243.684 107.556C243.867 117.643 243.884 127.736 243.675 137.821C243.647 139.164 242.359 141.061 241.171 141.703C229.457 148.026 217.99 141.557 216.57 127.797C215.663 119.006 215.977 110.488 224.54 104.956Z" fill="#FAFAFB"/>
<path d="M530.194 121.626C531.093 118.15 531.644 114.892 532.917 111.976C535.37 106.359 540.009 103.69 545.785 103.661C551.547 103.633 556.396 106.126 558.753 111.796C563.275 122.671 563.628 133.813 557.971 144.31C552.749 154 538.615 153.501 533.283 143.812C529.52 136.974 529.804 129.487 530.194 121.626Z" fill="#FAFBFC"/>
<path d="M118.547 150.621C114.124 144.547 115.326 139.535 122.054 137.809C127.91 136.306 134.058 136.044 140.759 135.143C140.759 140.192 140.826 144.731 140.69 149.263C140.669 149.967 139.839 151.067 139.186 151.262C132.357 153.298 125.505 154.417 118.547 150.621Z" fill="#F8F8FA"/>
<path d="M322.301 66.3689C307.247 66.1772 292.4 66.0091 277.555 65.7638C274.705 65.7168 273.066 63.9648 273.026 61.2812C272.996 59.3012 272.984 57.3196 273.036 55.3403C273.145 51.1682 275.76 48.1206 280.088 47.0918C284.713 45.9925 289.34 46.4909 293.861 47.4748C298.225 48.4242 302.484 49.7976 306.788 50.9866C307.385 51.1515 307.978 51.3277 308.987 51.6176C306.479 44.0386 304.08 36.7881 301.492 28.9679C294.71 32.1611 288.104 35.0832 281.698 38.3523C277.257 40.6187 274.48 39.4596 273.938 34.643C272.507 21.9375 277.801 12.3683 289.131 5.56671C289.741 5.2005 290.295 4.39615 290.411 3.72478C290.709 1.99129 291.6 0.811325 293.325 0.22569C295.006 -0.345025 296.361 0.231081 297.723 1.23219C298.408 1.7356 299.516 2.04486 300.383 1.96444C312.944 0.799057 322.918 5.00472 330.353 14.5959C330.523 14.8159 330.675 15.0501 330.825 15.2835C333.924 20.1079 332.685 22.407 326.832 23.4404C320.508 24.5569 314.246 25.99 307.962 27.3048C307.201 27.464 306.469 27.7459 305.477 28.0451C306.847 31.004 308.133 33.8051 309.437 36.5989C311.712 41.4716 314.034 46.3251 316.256 51.219C316.906 52.6516 317.712 53.6712 319.506 53.7476C322.881 53.8915 326.252 54.1603 329.628 54.2403C332.522 54.3088 335.432 54.0194 338.314 54.1908C341.834 54.4 342.983 55.7539 342.999 59.0686C343.019 63.0866 342.646 63.9804 338.436 64.6942C333.19 65.5837 327.823 65.8374 322.301 66.3689Z" fill="url(#paint0_linear_310_441)"/>
<defs>
<linearGradient id="paint0_linear_310_441" x1="278.648" y1="10.6916" x2="333.418" y2="66.3689" gradientUnits="userSpaceOnUse">
<stop stop-color="#6C66B0"/>
<stop offset="1" stop-color="#4295DC"/>
</linearGradient>
</defs>
</svg>
