<svg width="1401" height="795" viewBox="0 0 1401 795" fill="none" xmlns="http://www.w3.org/2000/svg">
<g clip-path="url(#clip0_314_586)">
<path d="M1400.5 794.484H0C15.346 755.35 43.685 722.152 83.635 712.3C142.075 697.912 203.921 737.471 262.235 722.6C295.363 714.158 321.444 689.555 348.849 669.125C452.24 592.04 593.925 569.257 716.268 610.058C780.218 631.375 838.493 668.652 904.004 684.506C988.714 705.006 1077.3 688.006 1164.41 685.206C1249.25 682.474 1370.81 717.044 1400.5 794.484Z" fill="#F3F5FD"/>
<path d="M1227.05 597.509C1220.29 617.967 1196.99 636.147 1203.94 651.192C1206.59 656.911 1209.25 662.892 1210.48 669.002C1211.27 672.645 1211.4 676.401 1210.87 680.091C1208.36 696.023 1193.45 706.605 1179.58 714.846C1178.73 715.352 1177.86 715.869 1177 716.386C1163.86 724.257 1150.1 733.32 1145.88 747.849C1143.54 755.92 1144.58 764.549 1143.61 772.897C1142.69 780.567 1140.08 787.939 1135.98 794.484H1047.44C1039.58 785.821 1040.24 771.261 1046.22 761.048C1052.62 750.117 1063.44 742.689 1073.2 734.607C1081.63 727.623 1089.85 719.214 1093.07 708.958C1093.58 707.335 1093.95 705.673 1094.19 703.989C1094.98 698.439 1094.55 670.089 1104.18 652.638C1119.05 625.691 1143.18 632.327 1150.56 617.123C1153.39 611.299 1155.82 539.732 1202.83 552.953C1207.41 554.179 1211.7 556.325 1215.42 559.26C1219.15 562.196 1222.24 565.86 1224.51 570.028C1226.77 574.197 1228.17 578.783 1228.6 583.508C1229.04 588.232 1228.51 592.996 1227.05 597.509Z" fill="#DEE8F5"/>
<path d="M1313.02 709.412C1311.67 710.341 1310.22 711.113 1308.7 711.712C1296.02 716.47 1260.74 715.943 1255.58 728.467C1253.16 734.354 1252.58 740.854 1250.5 746.878C1245.78 760.542 1233.33 770.786 1219.41 774.638C1214.4 776.02 1209.21 776.663 1204.25 778.204C1194.67 781.19 1186.73 787.193 1179.76 794.484H1065.42C1065.37 786.901 1067.23 779.429 1070.84 772.759C1074.45 766.09 1079.68 760.439 1086.05 756.332C1098.77 748.313 1114.83 746.815 1127.31 738.437C1135.54 732.909 1141.46 724.922 1146.15 716.091C1149.14 710.313 1151.78 704.362 1154.05 698.27C1157.55 689.207 1161.2 679.479 1169.13 673.87C1172.91 671.201 1177.38 669.702 1181.87 668.531C1193.32 665.531 1202.13 667.297 1210.48 669.006C1220.61 671.074 1230.06 673.047 1242.75 666.306C1265.27 654.341 1298.19 594.676 1331.09 651.366C1344.28 674.1 1326.08 700.676 1313.02 709.412Z" fill="#8DDBE0"/>
<path d="M177.014 597.509C183.767 617.967 207.074 636.147 200.114 651.192C197.466 656.911 194.807 662.892 193.583 669.002C192.789 672.645 192.657 676.401 193.193 680.091C195.704 696.023 210.613 706.605 224.476 714.846C225.331 715.352 226.196 715.869 227.061 716.386C240.197 724.257 253.955 733.32 258.176 747.849C260.518 755.92 259.484 764.549 260.455 772.897C261.375 780.567 263.98 787.939 268.083 794.484H356.616C364.476 785.821 363.822 771.261 357.839 761.048C351.439 750.117 340.62 742.689 330.861 734.607C322.43 727.623 314.211 719.214 310.993 708.958C310.482 707.335 310.105 705.673 309.865 703.989C309.084 698.439 309.506 670.089 299.884 652.638C285 625.691 260.873 632.327 253.5 617.123C250.672 611.299 248.235 539.732 201.231 552.953C196.648 554.179 192.362 556.325 188.634 559.26C184.907 562.196 181.816 565.86 179.55 570.028C177.285 574.197 175.891 578.783 175.455 583.508C175.019 588.232 175.55 592.996 177.014 597.509Z" fill="#DEE8F5"/>
<path d="M91.035 709.412C92.3849 710.341 93.8362 711.112 95.361 711.712C108.043 716.47 143.315 715.943 148.474 728.467C150.901 734.354 151.481 740.854 153.56 746.878C158.276 760.542 170.726 770.786 184.653 774.638C189.665 776.02 194.853 776.663 199.815 778.204C209.395 781.19 217.329 787.193 224.303 794.484H338.643C338.694 786.901 336.829 779.429 333.221 772.759C329.613 766.09 324.38 760.439 318.006 756.332C305.292 748.313 289.233 746.815 276.752 738.437C268.522 732.909 262.603 724.922 257.908 716.091C254.922 710.314 252.284 704.363 250.008 698.27C246.516 689.207 242.865 679.479 234.931 673.87C231.154 671.201 226.68 669.702 222.196 668.531C210.738 665.531 201.928 667.297 193.582 669.006C183.45 671.07 174 673.043 161.3 666.3C138.784 654.335 105.865 594.67 72.968 651.36C59.783 674.1 77.984 700.676 91.035 709.412Z" fill="#8DDBE0"/>
<path d="M1077.08 162.893C1069.39 160.396 1061.1 160.396 1053.41 162.893C1048.99 164.368 1045.04 166.998 1041.97 170.511C1038.06 175.146 1035.17 181.564 1035.46 187.711C1035.66 190.891 1036.67 193.968 1038.39 196.653C1040.1 199.339 1042.47 201.544 1045.27 203.064C1050.23 205.608 1057.7 206.136 1062.05 202.064C1065.36 198.964 1065.19 193.639 1063.05 189.944C1059.64 184.039 1052.18 181.638 1045.71 182.46C1042.02 182.989 1038.47 184.255 1035.27 186.183C1032.08 188.11 1029.31 190.66 1027.12 193.68C1025.06 196.538 1023.56 199.766 1022.71 203.189C1021.93 206.366 1021.61 210.01 1022.85 213.116C1023.08 213.849 1023.58 214.468 1024.24 214.846C1024.91 215.225 1025.7 215.335 1026.44 215.153C1027.83 214.772 1029.07 213.036 1028.48 211.566C1028.12 210.738 1027.91 209.851 1027.88 208.949C1027.82 207.835 1027.91 206.72 1028.14 205.628C1028.66 203.105 1029.6 200.689 1030.93 198.483C1033.61 194.087 1037.77 190.78 1042.65 189.148C1047.33 187.585 1052.85 187.6 1056.6 191.142C1057.3 191.77 1057.87 192.528 1058.28 193.372C1058.33 193.467 1058.5 193.894 1058.3 193.391C1058.39 193.619 1058.47 193.852 1058.54 194.091C1058.59 194.239 1058.63 194.391 1058.66 194.539C1058.71 194.739 1058.78 195.675 1058.73 194.822C1058.75 195.055 1058.95 196.43 1058.73 196.562C1058.66 196.601 1058.9 195.733 1058.77 196.243C1058.74 196.332 1058.74 196.426 1058.72 196.513C1058.66 196.761 1058.59 197.005 1058.51 197.244C1058.14 197.851 1057.57 198.32 1056.91 198.579C1057.34 198.379 1056.47 198.732 1056.47 198.73C1056.29 198.785 1056.11 198.83 1055.93 198.874C1055.39 199.014 1054.85 199.099 1054.29 199.126C1053.34 199.193 1052.39 199.167 1051.45 199.051C1050.43 198.871 1049.45 198.576 1048.5 198.171C1046.44 197.166 1044.68 195.626 1043.41 193.711C1042.14 191.796 1041.41 189.575 1041.28 187.281C1041.34 184.671 1041.93 182.101 1043.01 179.726C1043.44 178.762 1043.94 177.827 1044.48 176.926C1044.97 176.121 1045.51 175.354 1046.1 174.631C1046.71 173.913 1047.36 173.234 1048.05 172.599C1048.39 172.29 1048.73 171.991 1049.09 171.704C1049.78 171.142 1048.64 172.017 1049.36 171.498C1049.58 171.34 1049.8 171.185 1050.02 171.034C1050.79 170.512 1051.59 170.037 1052.42 169.612C1052.85 169.391 1053.28 169.184 1053.72 168.987C1053.81 168.945 1054.24 168.775 1053.74 168.974C1054.03 168.86 1054.31 168.75 1054.59 168.645C1056.5 167.965 1058.47 167.472 1060.46 167.174C1061.3 167.041 1059.86 167.229 1060.7 167.145C1060.95 167.12 1061.2 167.089 1061.45 167.065C1061.95 167.018 1062.45 166.981 1062.95 166.955C1063.94 166.903 1064.92 166.89 1065.91 166.917C1066.86 166.941 1067.81 167 1068.76 167.093C1068.96 167.114 1070.37 167.293 1069.57 167.177C1070.01 167.24 1070.45 167.306 1070.88 167.382C1072.46 167.65 1074.01 168.027 1075.53 168.51C1079.11 169.655 1080.65 164.026 1077.08 162.886L1077.08 162.893Z" fill="#0CBC8B"/>
<path d="M520.156 55.9209C527.596 53.2469 535.356 58.6539 538.856 65.2749C542.301 71.8009 541.498 81.1229 534.756 85.2979C531.891 87.0719 527.879 87.6669 525.38 85.3899C522.774 83.0149 522.933 80.0559 525.509 77.6809C526.112 77.1403 526.769 76.6631 527.47 76.2569C527.878 76.0109 528.295 75.7779 528.721 75.5639C528.877 75.4859 529.035 75.4109 529.193 75.3369C529.625 75.1369 528.564 75.5639 529.348 75.2719C529.978 75.034 530.622 74.8337 531.276 74.6719C531.586 74.5972 531.899 74.5306 532.214 74.4719C532.396 74.4379 532.578 74.4079 532.76 74.3789C532.16 74.4739 533.05 74.3519 533.095 74.3479C534.577 74.2115 536.069 74.2363 537.545 74.4219C538.039 74.4839 537.151 74.3579 537.645 74.4399C537.839 74.4729 538.034 74.5049 538.227 74.5399C538.567 74.6026 538.906 74.6736 539.243 74.7529C540.067 74.9461 540.879 75.1841 541.677 75.4659C541.904 75.5459 542.59 75.8089 542.586 75.8069C542.343 75.7069 542.794 75.9009 542.786 75.8979C542.968 75.9809 543.15 76.0659 543.33 76.1539C544.096 76.5255 544.839 76.9419 545.556 77.4009C546.784 78.177 547.896 79.1246 548.856 80.2149C549.8 81.2742 550.582 82.4671 551.178 83.7549C551.296 83.9921 551.396 84.2378 551.478 84.4899C551.656 84.9819 551.813 85.4829 551.957 85.9899C552.276 87.0763 552.515 88.1846 552.672 89.3059C553.182 93.4294 552.524 97.6132 550.774 101.381C549.024 105.15 546.252 108.351 542.772 110.622C541.384 111.49 539.809 112.014 538.178 112.152C536.547 112.29 534.906 112.037 533.392 111.414C532.973 111.212 532.57 110.978 532.186 110.714C531.726 110.406 532.402 110.93 532.137 110.683C532.068 110.619 531.997 110.557 531.931 110.489C531.844 110.398 531.766 110.303 531.683 110.211C532.443 111.051 531.771 110.367 531.818 110.346C531.752 110.241 531.693 110.132 531.64 110.02C531.803 110.273 531.767 110.526 531.691 110.104C531.672 110.004 531.508 109.155 531.561 109.633C531.61 110.082 531.572 109.349 531.569 109.204C531.566 109.059 531.589 108.92 531.593 108.777C531.593 108.888 531.446 109.41 531.581 108.893C531.671 108.55 531.736 108.207 531.846 107.868C531.902 107.697 532.2 107.016 531.969 107.508C532.122 107.181 532.289 106.862 532.469 106.55C532.662 106.218 532.869 105.897 533.095 105.584C533.118 105.551 533.42 105.16 533.195 105.449C533.326 105.284 533.464 105.124 533.603 104.967C534.81 103.612 536.221 102.452 537.785 101.531C538.266 101.241 538.755 100.962 539.256 100.709C539.425 100.623 540.21 100.289 539.57 100.541C540.184 100.298 540.812 100.092 541.45 99.9229C542.741 99.5367 544.083 99.3535 545.43 99.3799C546.191 99.3682 546.952 99.3966 547.71 99.4649C547.966 99.4704 548.221 99.504 548.47 99.5649C548.931 99.6499 549.39 99.7449 549.845 99.8649C551.362 100.211 552.792 100.866 554.045 101.789C556.355 103.658 557.981 106.238 558.671 109.128C559.454 112.139 559.525 115.291 558.88 118.335C558.278 121.345 556.959 124.166 555.035 126.558C554.059 127.743 552.911 128.774 551.629 129.617C548.497 131.66 551.417 136.717 554.573 134.654C561.799 129.939 565.673 121.096 565.103 112.573C564.898 108.249 563.443 104.078 560.916 100.564C558.189 96.9722 554.173 94.5797 549.716 93.8909C541.306 92.5119 532.316 95.8629 527.659 103.245C525.816 106.165 524.902 110.158 526.785 113.291C529.175 117.266 534.947 118.391 539.198 117.867C544.427 117.226 548.732 114.067 552.008 110.056C555.646 105.776 557.927 100.51 558.562 94.9289C559.133 89.7353 558.144 84.4894 555.722 79.8599C553.685 76.3214 550.686 73.4327 547.074 71.5289C540.162 67.8139 531.22 67.0989 524.363 71.3129C519.877 74.0699 516.363 78.9319 518.046 84.4029C518.844 86.865 520.415 89.0038 522.526 90.501C524.637 91.9983 527.175 92.7741 529.762 92.7129C540.862 92.5249 547.855 80.9129 546.562 70.7129C545.217 60.1329 536.562 50.6549 525.786 49.4569C523.36 49.188 520.904 49.4728 518.604 50.2899C517.869 50.5124 517.248 51.009 516.868 51.6768C516.489 52.3447 516.381 53.1327 516.567 53.8779C516.779 54.6201 517.273 55.2494 517.944 55.6305C518.615 56.0115 519.409 56.1136 520.155 55.9149L520.156 55.9209Z" fill="#0CBC8B"/>
<path d="M844.217 133.915C852.714 133.116 860.701 129.508 866.917 123.66C870.489 120.177 872.978 115.736 874.086 110.872C875.466 104.86 874.917 97.7249 871.474 92.4919C869.866 90.1562 867.751 88.2144 865.286 86.8117C862.822 85.409 860.072 84.5818 857.243 84.3919C851.837 84.1629 844.931 86.5589 842.612 91.8849C840.758 96.1449 843.053 101.2 846.726 103.678C852.553 107.609 860.156 106.702 865.926 103.16C869.062 101.138 871.757 98.5036 873.851 95.4152C875.944 92.3267 877.393 88.8475 878.11 85.1859C879.369 78.7079 878.61 70.6709 873.71 65.8199C872.59 64.7099 870.51 65.1659 869.61 66.3019C869.148 66.9161 868.94 67.6849 869.03 68.4485C869.119 69.212 869.5 69.9116 870.092 70.4019C869.655 69.9689 870.299 70.6629 870.327 70.7019C870.451 70.8589 870.569 71.0209 870.682 71.1849C870.901 71.4809 871.087 71.7998 871.237 72.1359C871.713 73.16 872.075 74.233 872.318 75.3359C872.795 77.6796 872.898 80.084 872.623 82.4599C871.998 87.645 869.544 92.4371 865.702 95.9749C862.076 99.2749 857.122 101.509 852.259 99.9689C851.278 99.6954 850.369 99.2103 849.596 98.5479C849.448 98.4239 849.302 98.2949 849.162 98.1609C849.612 98.5899 849.018 97.9889 848.968 97.9269C848.862 97.7936 848.76 97.6602 848.662 97.5269C848.562 97.3869 848.056 96.4869 848.431 97.2269C848.178 96.7269 848.068 96.0859 847.793 95.6139C847.809 95.6409 847.876 96.2969 847.821 95.6989C847.769 95.3974 847.758 95.0904 847.787 94.7859C847.928 93.8209 847.736 94.8809 847.902 94.3639C847.925 94.2939 848.221 93.6789 848.045 93.9899C848.19 93.7644 848.349 93.548 848.52 93.3419C848.587 93.2509 849.045 92.7639 848.699 93.0999C849.414 92.4468 850.219 91.9005 851.09 91.4779C852.841 90.5366 854.814 90.0873 856.8 90.1779C856.388 90.1629 857.026 90.2049 857.119 90.2159C857.372 90.2449 857.625 90.2669 857.877 90.3039C858.385 90.3748 858.889 90.4749 859.386 90.6039C859.042 90.5129 859.536 90.6509 859.566 90.6599C859.866 90.7599 860.166 90.8599 860.454 90.9809C861 91.2013 861.534 91.4493 862.054 91.7239C863.934 92.7451 865.549 94.1924 866.769 95.9499C869.392 99.9499 869.333 105.561 868.315 109.994C868.192 110.531 868.115 110.794 868.032 111.069C867.879 111.549 867.71 112.023 867.526 112.491C867.164 113.401 866.745 114.286 866.269 115.142C865.814 115.964 866.569 114.692 866.069 115.483C865.967 115.644 865.864 115.804 865.759 115.963C865.497 116.357 865.223 116.743 864.938 117.121C864.317 117.942 863.644 118.723 862.925 119.46C862.795 119.593 862.664 119.725 862.531 119.854C862.967 119.428 862.271 120.087 862.182 120.166C861.804 120.504 861.417 120.832 861.021 121.149C860.164 121.835 859.27 122.474 858.344 123.064C857.924 123.333 857.495 123.584 857.067 123.839C856.942 123.914 856.417 124.206 856.929 123.925C856.694 124.054 856.456 124.178 856.217 124.301C855.277 124.782 854.318 125.223 853.34 125.623C851.611 126.322 849.838 126.907 848.032 127.373C847.874 127.415 847.343 127.532 847.977 127.389C847.755 127.439 847.533 127.489 847.31 127.537C846.88 127.629 846.447 127.712 846.01 127.788C845.21 127.928 844.405 128.038 843.595 128.117C839.851 128.488 840.468 134.289 844.204 133.917L844.217 133.915Z" fill="#0CBC8B"/>
<path d="M603.181 -0.00367004L593.928 5.94543L608.018 27.8586L617.27 21.9095L603.181 -0.00367004Z" fill="#0CBC8B"/>
<path d="M785.992 191.612L770.079 215.637L779.25 221.711L795.163 197.686L785.992 191.612Z" fill="#0CBC8B"/>
<path d="M270.854 70.4014L256.909 91.7493L266.119 97.7651L280.064 76.4172L270.854 70.4014Z" fill="#0CBC8B"/>
<path d="M1145.33 289.866L1134.65 292.503L1141.48 320.155L1152.16 317.518L1145.33 289.866Z" fill="#0CBC8B"/>
<path d="M1167.35 70.2932L1158.29 76.5354L1175.07 100.883L1184.13 94.6406L1167.35 70.2932Z" fill="#0CBC8B"/>
<path d="M362.378 179.845L341.813 204.193L350.217 211.291L370.782 186.943L362.378 179.845Z" fill="#0CBC8B"/>
<path d="M531.213 355.956L511.339 376.358L519.219 384.033L539.092 363.631L531.213 355.956Z" fill="#0CBC8B"/>
<path d="M1212.18 179.977C1214.46 165.282 1209.96 155.324 1202.79 149.177C1195.72 143.114 1171.94 135.296 1160.1 151.898C1152.38 162.731 1154.16 167.259 1149.75 185.758C1145.33 204.257 1138.48 205.276 1128.55 227.037C1120.75 244.106 1148.66 257.788 1174.13 260.626C1199.6 263.464 1216.48 260.168 1220.28 244.256C1225.72 221.422 1207.73 208.774 1212.18 179.977Z" fill="#0F1011"/>
<path d="M1191.21 218.488C1191.21 218.488 1184.19 213.262 1189.09 192.712L1173.75 187.359C1173.75 187.359 1172.66 206.291 1163.76 210.989L1191.21 218.488Z" fill="#E98862"/>
<g opacity="0.15">
<path d="M1167.6 207.584L1182.26 199.563L1171.97 197.874C1171.13 201.355 1169.65 204.648 1167.6 207.584Z" fill="black"/>
</g>
<path d="M1199.29 186.017C1197.23 192.164 1192.87 197.617 1186.98 198.798C1180.54 200.275 1173.84 200.155 1167.45 198.446C1150.38 194.374 1159.84 155.591 1169.22 149.217C1178.6 142.843 1201.94 151.376 1202.91 164.596C1203.41 171.433 1201.26 180.167 1199.29 186.017Z" fill="#E98862"/>
<path d="M1175.53 177.373C1176.33 177.373 1176.98 176.724 1176.98 175.924C1176.98 175.124 1176.33 174.475 1175.53 174.475C1174.73 174.475 1174.08 175.124 1174.08 175.924C1174.08 176.724 1174.73 177.373 1175.53 177.373Z" fill="#0F1011"/>
<path d="M1164.38 174.711C1165.18 174.711 1165.82 174.062 1165.82 173.262C1165.82 172.462 1165.18 171.813 1164.38 171.813C1163.57 171.813 1162.93 172.462 1162.93 173.262C1162.93 174.062 1163.57 174.711 1164.38 174.711Z" fill="#0F1011"/>
<path d="M1166.27 170.372C1166.23 170.372 1166.2 170.37 1166.17 170.365L1162.37 169.83C1162.28 169.82 1162.19 169.793 1162.11 169.748C1162.03 169.704 1161.96 169.644 1161.9 169.572C1161.85 169.5 1161.81 169.417 1161.78 169.329C1161.76 169.241 1161.75 169.149 1161.76 169.058C1161.78 168.968 1161.81 168.881 1161.86 168.802C1161.9 168.724 1161.96 168.656 1162.04 168.602C1162.11 168.548 1162.2 168.51 1162.29 168.489C1162.37 168.469 1162.47 168.466 1162.56 168.482L1166.36 169.017C1166.53 169.042 1166.68 169.13 1166.79 169.263C1166.9 169.397 1166.95 169.567 1166.94 169.738C1166.93 169.91 1166.85 170.07 1166.73 170.188C1166.6 170.305 1166.43 170.371 1166.26 170.372H1166.27Z" fill="#0F1011"/>
<path d="M1179.12 173.811C1179.04 173.811 1178.95 173.794 1178.87 173.76L1175.27 172.286C1175.18 172.254 1175.1 172.205 1175.04 172.142C1174.97 172.079 1174.92 172.004 1174.88 171.921C1174.85 171.837 1174.83 171.747 1174.83 171.657C1174.83 171.566 1174.84 171.476 1174.88 171.391C1174.91 171.307 1174.96 171.231 1175.03 171.167C1175.09 171.103 1175.17 171.052 1175.25 171.018C1175.34 170.984 1175.43 170.967 1175.52 170.969C1175.61 170.97 1175.7 170.989 1175.78 171.026L1179.38 172.501C1179.53 172.56 1179.65 172.669 1179.73 172.808C1179.8 172.947 1179.82 173.108 1179.79 173.262C1179.76 173.417 1179.68 173.557 1179.56 173.657C1179.44 173.757 1179.28 173.812 1179.12 173.811Z" fill="#0F1011"/>
<path d="M1173.14 187.1C1173.14 187.1 1167.77 186.846 1164.26 184.982C1164.26 184.982 1163.75 188.469 1167.88 189.454C1172.01 190.439 1173.14 187.1 1173.14 187.1Z" fill="white"/>
<path d="M1190.17 167.871C1186.85 182.509 1186.18 197.626 1188.2 212.5C1188.2 212.5 1203.46 193.583 1208.01 176.57C1212.26 160.622 1201.78 149.211 1193.98 146.17C1164.35 134.596 1158.99 156.655 1158.99 156.655C1159.88 164.571 1192.67 174.131 1192.67 174.131" fill="#0F1011"/>
<path d="M1181.82 183.207C1181.62 183.995 1181.58 184.815 1181.7 185.619C1181.82 186.422 1182.1 187.194 1182.52 187.889C1182.94 188.584 1183.5 189.188 1184.16 189.667C1184.81 190.145 1185.56 190.489 1186.35 190.678C1187.14 190.866 1187.96 190.896 1188.76 190.765C1189.56 190.634 1190.33 190.346 1191.02 189.916C1191.71 189.486 1192.31 188.924 1192.78 188.261C1193.25 187.599 1193.59 186.85 1193.77 186.057C1193.97 185.272 1194.01 184.454 1193.89 183.653C1193.77 182.851 1193.49 182.082 1193.06 181.392C1192.64 180.701 1192.08 180.104 1191.42 179.634C1190.76 179.164 1190.01 178.832 1189.22 178.657C1184.91 177.851 1182.6 179.907 1181.82 183.207Z" fill="#E98862"/>
<g opacity="0.15">
<path d="M1168.03 182.9C1167.95 182.9 1167.88 182.883 1167.81 182.85L1164.53 181.262C1164.46 181.231 1164.41 181.187 1164.36 181.132C1164.32 181.078 1164.28 181.015 1164.26 180.946C1164.25 180.878 1164.24 180.807 1164.25 180.737C1164.26 180.667 1164.29 180.6 1164.33 180.541L1167.37 175.841C1167.44 175.73 1167.55 175.651 1167.68 175.623C1167.81 175.596 1167.95 175.62 1168.06 175.692C1168.17 175.764 1168.25 175.878 1168.28 176.007C1168.31 176.137 1168.28 176.273 1168.21 176.384L1165.48 180.609L1168.25 181.951C1168.35 182 1168.43 182.083 1168.48 182.185C1168.53 182.287 1168.54 182.402 1168.52 182.513C1168.49 182.623 1168.43 182.722 1168.34 182.792C1168.25 182.863 1168.15 182.901 1168.03 182.901L1168.03 182.9Z" fill="black"/>
</g>
<path d="M1312.79 442.232L1227.89 457.705C1225.37 458.164 1222.78 457.898 1220.41 456.938C1218.04 455.977 1215.99 454.363 1214.51 452.282L1213.87 451.382L1176.33 398.694L1209.83 379.355L1233.22 430.623L1309.69 421.465L1312.79 442.232Z" fill="#E98862"/>
<path d="M1328.52 465.419C1328.66 465.968 1328.67 466.538 1328.58 467.095C1328.48 467.651 1328.27 468.181 1327.95 468.652C1327.64 469.123 1327.24 469.524 1326.76 469.831C1326.29 470.139 1325.76 470.345 1325.2 470.437C1324.43 470.564 1323.64 470.469 1322.92 470.161C1322.2 469.853 1321.58 469.346 1321.14 468.7L1307.34 446.927C1307.07 446.505 1306.9 446.03 1306.84 445.536C1306.77 445.041 1306.81 444.539 1306.96 444.062C1308.42 440.241 1308.62 436.053 1307.52 432.113C1306.54 429.075 1304.72 426.375 1302.28 424.32C1302.04 424.144 1301.86 423.905 1301.76 423.631C1301.65 423.357 1301.63 423.059 1301.69 422.771C1301.75 422.484 1301.89 422.219 1302.09 422.008C1302.3 421.797 1302.55 421.648 1302.84 421.579L1314.44 418.718C1314.79 418.634 1315.14 418.618 1315.49 418.671C1315.84 418.724 1316.17 418.846 1316.48 419.029C1316.78 419.212 1317.04 419.453 1317.25 419.738C1317.46 420.022 1317.61 420.345 1317.69 420.688L1328.52 465.419Z" fill="#C1D8ED"/>
<path d="M1128.4 466.377L1159.17 585.015L1139.02 590.932L1100.77 474.607L1128.4 466.377Z" fill="#E98862"/>
<path d="M1117.21 608.2C1116.67 608.382 1116.11 608.452 1115.54 608.405C1114.98 608.358 1114.43 608.196 1113.94 607.927C1113.44 607.659 1113 607.29 1112.65 606.845C1112.3 606.4 1112.05 605.888 1111.91 605.341C1111.71 604.584 1111.74 603.786 1111.98 603.042C1112.22 602.298 1112.67 601.638 1113.28 601.141L1133.72 585.441C1134.12 585.139 1134.58 584.925 1135.06 584.816C1135.55 584.707 1136.06 584.704 1136.54 584.808C1140.48 585.92 1144.67 585.739 1148.49 584.292C1151.43 583.042 1153.96 580.992 1155.79 578.375C1155.94 578.125 1156.16 577.924 1156.42 577.796C1156.69 577.667 1156.98 577.617 1157.27 577.649C1157.57 577.682 1157.84 577.797 1158.07 577.981C1158.3 578.165 1158.47 578.41 1158.57 578.688L1162.46 589.988C1162.57 590.321 1162.62 590.674 1162.6 591.026C1162.57 591.378 1162.48 591.722 1162.33 592.039C1162.17 592.355 1161.96 592.638 1161.69 592.871C1161.43 593.103 1161.12 593.282 1160.78 593.395L1117.21 608.2Z" fill="#C1D8ED"/>
<path d="M1120.22 313.631C1120.22 313.631 1093.8 398.737 1086.58 423.031C1070.24 477.985 1100.77 519.016 1100.77 519.016C1100.77 519.016 1142.07 524.907 1162.61 497.544C1200.59 446.935 1249.2 482.158 1251.28 426.065C1223.63 420.848 1192.62 320.6 1192.62 320.6L1120.22 313.631Z" fill="#262626"/>
<path d="M209.1 226.724C209.1 226.724 216.621 222.249 213.861 201.303L229.672 197.558C229.672 197.558 228.808 216.502 237.172 222.091L209.1 226.724Z" fill="#E98862"/>
<g opacity="0.15">
<path d="M233.714 218.31L219.958 208.822L230.364 208.201C230.841 211.75 231.977 215.179 233.714 218.31Z" fill="black"/>
</g>
<path d="M204.408 193.594C205.827 199.92 209.608 205.794 215.336 207.575C222.136 209.692 227.095 209.614 234.799 209.235C245.311 208.717 244.424 197.771 244.175 186.708C243.925 175.601 242.457 163.747 238.112 160.086C229.439 152.779 205.339 158.864 203.012 171.914C201.811 178.663 203.057 187.572 204.408 193.594Z" fill="#E98862"/>
<path d="M248.8 165.987C248.8 165.987 253.058 164.814 251.667 160.579C250.746 157.77 247.129 158.579 247.129 158.579C247.129 158.579 250.552 157.779 250.403 154.762C250.31 152.862 248.692 149.715 244.378 151.772C239.317 154.185 233.41 154.198 228.892 153.665C226.329 153.235 223.738 152.998 221.14 152.957H221.127C218.147 153.051 215.199 153.594 212.381 154.568C204.489 157.359 192.72 165.138 196.099 181.294C199.87 199.325 208.74 205.855 212.599 207.894C212.827 208.017 213.081 208.086 213.34 208.097C213.599 208.107 213.858 208.058 214.095 207.954C214.333 207.85 214.544 207.694 214.712 207.496C214.88 207.298 215.001 207.065 215.066 206.814C215.966 203.356 217.376 194.696 215.991 177.051C240.554 174.631 247.62 173.916 247.62 173.916C247.62 173.916 253.427 173.847 253.22 169.616C253.013 165.385 248.8 165.987 248.8 165.987Z" fill="#0F1011"/>
<path d="M229.083 187.45C229.883 187.45 230.532 186.801 230.532 186.001C230.532 185.201 229.883 184.552 229.083 184.552C228.283 184.552 227.634 185.201 227.634 186.001C227.634 186.801 228.283 187.45 229.083 187.45Z" fill="#0F1011"/>
<path d="M240.454 185.952C241.254 185.952 241.903 185.303 241.903 184.503C241.903 183.703 241.254 183.054 240.454 183.054C239.654 183.054 239.005 183.703 239.005 184.503C239.005 185.303 239.654 185.952 240.454 185.952Z" fill="#0F1011"/>
<path d="M238.94 181.436C238.763 181.433 238.595 181.362 238.47 181.237C238.344 181.113 238.273 180.944 238.269 180.768C238.266 180.591 238.332 180.42 238.452 180.291C238.573 180.162 238.739 180.084 238.915 180.075L242.751 179.934C242.93 179.929 243.104 179.996 243.235 180.118C243.365 180.241 243.442 180.411 243.449 180.59C243.456 180.769 243.391 180.944 243.27 181.076C243.149 181.208 242.98 181.287 242.801 181.295L238.965 181.436H238.94Z" fill="#0F1011"/>
<path d="M225.8 183.533C225.636 183.533 225.479 183.473 225.355 183.366C225.232 183.259 225.151 183.11 225.128 182.949C225.105 182.787 225.141 182.622 225.229 182.484C225.317 182.347 225.452 182.245 225.609 182.199L229.345 181.099C229.517 181.053 229.7 181.076 229.855 181.163C230.011 181.25 230.126 181.395 230.175 181.566C230.225 181.737 230.206 181.92 230.123 182.077C230.039 182.234 229.897 182.352 229.727 182.406L225.992 183.501C225.93 183.521 225.865 183.532 225.8 183.533Z" fill="#0F1011"/>
<path d="M221.728 189.913C221.846 190.719 221.803 191.54 221.6 192.329C221.398 193.118 221.041 193.859 220.55 194.508C220.059 195.158 219.444 195.703 218.74 196.113C218.036 196.523 217.257 196.788 216.45 196.894C215.643 197 214.822 196.945 214.036 196.731C213.25 196.517 212.515 196.149 211.873 195.648C211.23 195.147 210.694 194.524 210.295 193.814C209.896 193.104 209.642 192.322 209.548 191.513C209.429 190.711 209.472 189.894 209.675 189.109C209.878 188.324 210.237 187.588 210.731 186.945C211.224 186.302 211.842 185.765 212.547 185.365C213.252 184.966 214.031 184.712 214.836 184.62C219.2 184.267 221.285 186.55 221.728 189.913Z" fill="#E98862"/>
<g opacity="0.15">
<path d="M235.878 193.712C235.761 193.711 235.648 193.67 235.558 193.594C235.469 193.518 235.409 193.414 235.389 193.299C235.369 193.183 235.389 193.065 235.448 192.963C235.506 192.862 235.598 192.784 235.708 192.743L238.608 191.694L236.324 187.21C236.291 187.151 236.27 187.087 236.262 187.02C236.255 186.953 236.261 186.885 236.281 186.82C236.3 186.756 236.332 186.696 236.376 186.644C236.419 186.592 236.472 186.55 236.532 186.519C236.592 186.488 236.658 186.47 236.725 186.466C236.792 186.461 236.86 186.47 236.924 186.492C236.987 186.514 237.046 186.549 237.096 186.594C237.146 186.64 237.186 186.695 237.214 186.756L239.756 191.745C239.789 191.808 239.807 191.878 239.811 191.949C239.815 192.02 239.803 192.091 239.777 192.157C239.751 192.224 239.711 192.284 239.66 192.333C239.609 192.383 239.548 192.421 239.481 192.445L236.05 193.686C235.995 193.705 235.936 193.714 235.878 193.712Z" fill="black"/>
</g>
<path d="M230.313 197.366C230.313 197.366 235.683 197.666 239.363 196.173C239.363 196.173 239.507 199.693 235.297 200.248C231.087 200.803 230.313 197.366 230.313 197.366Z" fill="white"/>
<path d="M270.929 131.243L281.555 126.015C281.555 126.015 281.38 110.695 267.809 103.988C263.309 101.765 260.718 106.81 261.651 108.274C264.735 113.113 268.251 117.495 268.699 122.405C266.909 121.049 264.352 119.342 263.731 120.125C262.1 122.185 270.929 131.243 270.929 131.243Z" fill="#E98862"/>
<path d="M94.685 445.193C94.074 445.041 92.214 444.576 74.685 437.913L82.147 418.284C89.576 421.107 98.517 424.433 100.007 424.884C99.912 424.855 99.832 424.836 99.77 424.82L94.685 445.193Z" fill="#E98862"/>
<path d="M59.629 460.854C59.4716 461.396 59.4279 461.965 59.5004 462.525C59.5729 463.085 59.7601 463.625 60.0504 464.109C60.3407 464.593 60.7277 465.013 61.1874 465.341C61.6471 465.669 62.1695 465.899 62.722 466.016C63.4877 466.178 64.2839 466.119 65.0168 465.844C65.7498 465.569 66.3889 465.091 66.859 464.465L81.628 443.339C81.9123 442.929 82.1048 442.462 82.1923 441.971C82.2798 441.48 82.2602 440.976 82.135 440.493C80.8489 436.61 80.8429 432.418 82.118 428.532C83.236 425.542 85.1719 422.926 87.705 420.984C87.9475 420.819 88.1381 420.588 88.2545 420.319C88.3709 420.05 88.4085 419.753 88.3626 419.463C88.3168 419.174 88.1896 418.903 87.9958 418.683C87.802 418.463 87.5496 418.302 87.268 418.22L75.8 414.837C75.4618 414.737 75.1072 414.705 74.7566 414.743C74.406 414.781 74.0663 414.887 73.757 415.056C73.4477 415.226 73.1749 415.454 72.9542 415.729C72.7335 416.004 72.5693 416.32 72.471 416.659L59.629 460.854Z" fill="#C1D8ED"/>
<path d="M180.55 511.178L176.974 490.485C184.807 489.131 194.196 487.44 195.707 487.068C195.607 487.091 195.532 487.115 195.471 487.133L201.464 507.26C200.861 507.44 199.025 507.987 180.55 511.178Z" fill="#E98862"/>
<path d="M179.272 538.59C179.413 539.137 179.665 539.649 180.013 540.094C180.36 540.539 180.796 540.908 181.292 541.177C181.789 541.446 182.336 541.61 182.898 541.658C183.461 541.706 184.028 541.638 184.563 541.458C185.305 541.208 185.959 540.751 186.45 540.141C186.941 539.531 187.247 538.794 187.333 538.016L189.285 512.316C189.321 511.818 189.249 511.319 189.075 510.851C188.9 510.384 188.626 509.96 188.272 509.609C185.19 506.921 183.052 503.316 182.172 499.323C181.611 496.181 181.945 492.944 183.136 489.983C183.261 489.717 183.308 489.422 183.271 489.13C183.234 488.839 183.115 488.565 182.928 488.338C182.741 488.112 182.494 487.944 182.215 487.853C181.935 487.762 181.636 487.753 181.352 487.826L169.764 490.753C169.422 490.839 169.101 490.992 168.818 491.203C168.535 491.414 168.297 491.679 168.117 491.982C167.937 492.285 167.819 492.621 167.769 492.97C167.719 493.319 167.738 493.674 167.826 494.016L179.272 538.59Z" fill="#C1D8ED"/>
<path d="M294.211 473.127L294.111 472.281C291.482 450.429 276.84 343.903 275.111 332.643H199.4C199.4 332.643 169.94 428.928 168.8 431.596L96.421 416.164L87.337 452.032L176.447 478.239C181.176 479.628 186.243 479.311 190.764 477.345C195.284 475.379 198.97 471.888 201.178 467.481C201.178 467.481 233.529 384.84 234.178 383.318L254.15 462.256L186.588 481.485L196.717 517.072L280.925 493.105C285.154 491.899 288.814 489.225 291.249 485.564C293.684 481.902 294.734 477.493 294.211 473.127Z" fill="#262626"/>
<path d="M130.84 149.405L119.512 152.858C119.512 152.858 109.937 139.465 115.25 125.29C117.011 120.59 122.35 122.499 122.674 124.205C123.733 129.844 123.389 137.545 126.422 141.432C126.801 139.218 127.498 136.224 128.487 136.37C131.087 136.756 130.84 149.405 130.84 149.405Z" fill="#E98862"/>
<path d="M1129.7 109.457L1118.59 105.348C1118.59 105.348 1117.19 90.092 1130 82.026C1134.25 79.352 1137.35 84.104 1136.57 85.657C1134 90.786 1130.95 95.507 1131.01 100.437C1132.65 98.904 1135.02 96.943 1135.72 97.658C1137.55 99.539 1129.7 109.457 1129.7 109.457Z" fill="#E98862"/>
<path d="M1264.47 139.648L1276.29 140.377C1276.29 140.377 1282.49 125.127 1274.03 112.572C1271.23 108.412 1266.47 111.507 1266.56 113.241C1266.84 118.972 1268.96 126.382 1266.91 130.868C1266.03 128.802 1264.66 126.052 1263.73 126.424C1261.29 127.4 1264.47 139.648 1264.47 139.648Z" fill="#E98862"/>
<path d="M1283.23 137.258L1270.96 201.638C1270.67 203.18 1270.05 204.64 1269.14 205.918C1268.23 207.197 1267.05 208.264 1265.69 209.047L1219.12 235.878C1219.72 251.857 1203.85 270.087 1200.95 286.738C1197.35 307.438 1205.1 318.338 1202.57 328.838C1198.58 345.349 1118.15 327.298 1115.67 317.088C1113.11 306.579 1122.8 302.048 1127.98 269.999C1130.45 254.739 1129.1 235.669 1133.11 222.499L1095.75 174.999C1094.66 173.6 1093.92 171.954 1093.6 170.205C1093.28 168.455 1093.4 166.654 1093.93 164.959L1114.72 99.5591L1135.5 106.159L1116.46 166.059L1148.8 207.179C1151.67 206.775 1154.59 206.782 1157.45 207.199C1158.07 207.279 1159.07 207.429 1160.36 207.629C1159.68 213.099 1193.23 218.919 1194.91 213.509C1199.18 214.205 1203.3 215.6 1207.1 217.639L1250.48 192.649L1261.81 133.179L1283.23 137.258Z" fill="#367CFF"/>
<path d="M774.728 764.827C699.628 731.117 692.521 595 696.039 582.068C697.339 577.285 695.051 576.045 691.655 576.376C687.122 575.849 678.712 580.108 675.973 581.576C673.234 580.106 664.824 575.847 660.291 576.376C656.891 576.045 654.607 577.285 655.907 582.068C659.425 595 652.314 731.117 577.218 764.827C561.439 771.91 566.874 780.344 566.874 780.344H785.074C785.074 780.344 790.507 771.91 774.728 764.827Z" fill="#440CBC"/>
<g opacity="0.09">
<path d="M785.068 780.351H771.068C771.068 780.351 776.507 771.911 760.727 764.831C685.627 731.121 688.517 595.002 692.037 582.072C693.057 578.312 691.858 576.742 689.638 576.402C690.305 576.321 690.979 576.314 691.648 576.382C695.048 576.052 697.337 577.292 696.037 582.072C692.517 595.002 699.627 731.121 774.727 764.831C790.511 771.908 785.068 780.351 785.068 780.351Z" fill="black"/>
</g>
<path d="M976.079 414.1C954.21 448.11 927.749 457.61 898.219 465.99C869.189 474.23 844.12 481.34 828.25 508.05C824.366 514.391 821.492 521.297 819.73 528.52V528.54C819.321 530.266 819.001 532.013 818.773 533.772C818.509 536.074 817.693 538.278 816.394 540.196C815.288 541.816 813.787 543.127 812.032 544.004C810.278 544.882 808.328 545.297 806.368 545.21C800.468 545.21 797.019 542.823 795.016 539.855C793.23 537.122 792.506 533.83 792.98 530.599C793.073 529.908 793.176 529.215 793.29 528.52C795.318 516.573 799.597 505.12 805.899 494.77C827.049 459.16 861.089 449.5 891.118 440.97C918.659 433.16 937.659 425.78 954.209 400.04C962.439 387.22 971.209 357.79 960.719 334.4C952.549 316.2 939.18 305.53 920.99 302.67C871.329 294.87 847.999 343.25 847.029 345.31C845.539 348.369 842.908 350.722 839.702 351.864C836.496 353.005 832.97 352.843 829.882 351.414C826.793 349.984 824.389 347.4 823.184 344.217C821.98 341.034 822.071 337.506 823.44 334.39C829.535 322.234 837.689 311.225 847.54 301.85C869.41 281.05 896.21 272.46 925.019 276.99C951.68 281.17 972.78 297.78 984.44 323.76C997.729 353.38 990.15 392.22 976.079 414.1Z" fill="#440CBC"/>
<path d="M375.914 414.1C397.784 448.11 426.244 457.61 455.774 465.99C484.804 474.23 509.875 481.34 525.745 508.05C529.628 514.391 532.502 521.297 534.264 528.52V528.54C534.674 530.266 534.993 532.013 535.221 533.772C535.485 536.074 536.301 538.278 537.599 540.196C538.706 541.816 540.207 543.127 541.961 544.004C543.716 544.882 545.665 545.297 547.625 545.21C553.525 545.21 556.973 542.823 558.977 539.855C560.764 537.122 561.488 533.829 561.013 530.599C560.92 529.908 560.817 529.215 560.704 528.52C558.676 516.573 554.397 505.12 548.094 494.77C526.944 459.16 492.904 449.5 462.874 440.97C435.334 433.16 414.334 425.78 397.784 400.04C389.554 387.22 382.784 357.79 393.274 334.4C401.444 316.2 414.814 305.53 433.004 302.67C482.664 294.87 505.994 343.25 506.964 345.31C508.455 348.369 511.086 350.722 514.292 351.864C517.498 353.005 521.024 352.843 524.112 351.414C527.201 349.984 529.605 347.4 530.81 344.217C532.014 341.034 531.923 337.506 530.555 334.39C524.459 322.234 516.305 311.225 506.454 301.85C484.584 281.05 457.784 272.46 428.974 276.99C402.314 281.17 381.214 297.78 369.554 323.76C356.267 353.38 361.844 392.22 375.914 414.1Z" fill="#440CBC"/>
<path d="M842.346 261.314C841.834 256.823 839.687 252.678 836.314 249.67C832.941 246.661 828.579 244.999 824.06 245H529.667C525.148 244.999 520.786 246.661 517.413 249.67C514.04 252.678 511.893 256.823 511.381 261.314C506.645 303.171 498.181 415.414 534.172 477.344C579 554.482 647.033 582.068 661.688 582.068H692.035C706.689 582.068 774.723 554.482 819.55 477.344C855.544 415.416 847.083 303.171 842.346 261.314Z" fill="#440CBC"/>
<g opacity="0.09">
<path d="M842.346 261.314C841.834 256.823 839.687 252.678 836.314 249.67C832.941 246.661 828.579 244.999 824.06 245H765.089C765.089 245 775.117 398.931 756.349 476.068C737.581 553.205 691.514 582.068 692.039 582.068C706.693 582.068 774.728 554.482 819.555 477.344C855.544 415.416 847.083 303.171 842.346 261.314Z" fill="black"/>
</g>
<path d="M785.073 780.344H566.969V832.464H785.073V780.344Z" fill="#0F1011"/>
<path d="M735.559 378.847L689.826 354.796L644.057 378.847L652.815 327.929L615.802 291.856L666.94 284.442L689.826 238.104L712.656 284.442L763.812 291.856L726.801 327.929L735.559 378.847Z" fill="white"/>
<path d="M309.067 176.961L284.845 119.942L264.777 128.467L286.346 179.242L252.846 218.09C249.995 217.559 247.082 217.433 244.196 217.718C243.576 217.768 242.576 217.878 241.276 218.018C240.555 218.099 239.721 218.196 238.828 218.3L237.595 211.761L204.674 216.2L205.583 222.476C198.53 223.529 192.676 226.057 188.622 229.442L141.684 204.09L134.051 144.805L112.425 147.59L120.772 212.419C120.993 214.134 121.62 215.773 122.599 217.199C123.578 218.624 124.883 219.797 126.405 220.619L181.619 250.436C183.93 264.777 195.303 280.799 197.144 295.217C199.804 316.057 191.574 326.597 193.624 337.197C196.864 353.866 278.024 339.477 280.964 329.397C283.994 318.997 274.524 314.046 270.794 281.787C269.017 266.437 271.232 247.443 267.821 234.108L307.288 188.343C308.618 186.801 309.49 184.918 309.804 182.906C310.118 180.894 309.863 178.835 309.067 176.961Z" fill="#367CFF"/>
<path d="M1194.91 213.508C1193.23 218.918 1182.2 226.658 1170.22 223.748C1161.24 221.578 1159.68 213.098 1160.36 207.628C1167.33 208.728 1182.94 211.418 1194.88 213.498C1194.89 213.497 1194.89 213.498 1194.9 213.5C1194.91 213.501 1194.91 213.504 1194.91 213.508Z" fill="#E98862"/>
</g>
<defs>
<clipPath id="clip0_314_586">
<rect width="1400.5" height="794.484" fill="white"/>
</clipPath>
</defs>
</svg>
